<svg width="134" height="34" viewBox="0 0 134 34" fill="none" xmlns="http://www.w3.org/2000/svg">
<path d="M20.1214 15.8977C20.0812 12.254 23.1299 10.4785 23.277 10.399C21.5521 7.90796 18.8778 7.56346 17.9419 7.53696C15.6955 7.29846 13.516 8.86196 12.3794 8.86196C11.2161 8.86196 9.45113 7.55021 7.55242 7.58996C5.10548 7.62971 2.81901 9.03421 1.57548 11.2072C-1.00516 15.646 0.920293 22.165 3.39397 25.7557C4.63749 27.518 6.08158 29.479 7.9803 29.3995C9.83889 29.32 10.5342 28.2335 12.7672 28.2335C14.9868 28.2335 15.6286 29.3995 17.5675 29.3597C19.5598 29.3332 20.8167 27.5975 22.0067 25.822C23.4374 23.808 24.0124 21.8205 24.0391 21.7277C23.9723 21.7145 20.1615 20.2702 20.1214 15.8977Z" fill="white"/>
<path d="M16.4694 5.17845C17.4722 3.9462 18.1542 2.26345 17.9536 0.554199C16.5095 0.620449 14.7044 1.54795 13.6614 2.7537C12.7388 3.8137 11.9232 5.5627 12.1371 7.2057C13.755 7.32495 15.4264 6.39745 16.4694 5.17845Z" fill="white"/>
<path d="M43.56 24.9606H37.2354L35.7111 29.4126H33.0369L39.0272 12.9561H41.8084L47.7987 29.4126H45.0709L43.56 24.9606ZM37.8906 22.9068H42.9048L40.4311 15.6856H40.3643L37.8906 22.9068Z" fill="white"/>
<path d="M60.7545 23.4101C60.7545 27.1333 58.7355 29.5316 55.7002 29.5316C53.9753 29.5316 52.6114 28.7631 51.8894 27.4381H51.8359V33.3741H49.3489V17.4078H51.7557V19.4086H51.7958C52.4911 18.1233 53.9619 17.2886 55.6467 17.2886C58.7355 17.2886 60.7545 19.6868 60.7545 23.4101ZM58.2006 23.4101C58.2006 20.9853 56.9303 19.3821 55.0049 19.3821C53.1062 19.3821 51.8225 21.0118 51.8225 23.4101C51.8225 25.8216 53.1062 27.4513 55.0049 27.4513C56.9303 27.4513 58.2006 25.8613 58.2006 23.4101Z" fill="white"/>
<path d="M74.0751 23.4101C74.0751 27.1333 72.0561 29.5316 69.0208 29.5316C67.2959 29.5316 65.9321 28.7631 65.21 27.4381H65.1565V33.3741H62.6829V17.4078H65.0897V19.4086H65.1298C65.8251 18.1233 67.2959 17.2886 68.9807 17.2886C72.0561 17.2886 74.0751 19.6868 74.0751 23.4101ZM71.5212 23.4101C71.5212 20.9853 70.251 19.3821 68.3255 19.3821C66.4268 19.3821 65.1432 21.0118 65.1432 23.4101C65.1432 25.8216 66.4268 27.4513 68.3255 27.4513C70.2643 27.4513 71.5212 25.8613 71.5212 23.4101Z" fill="white"/>
<path d="M82.8835 24.828C83.0707 26.4577 84.6619 27.531 86.8547 27.531C88.954 27.531 90.4516 26.4577 90.4516 24.987C90.4516 23.715 89.5423 22.9465 87.3896 22.4165L85.2368 21.8997C82.1882 21.171 80.7708 19.7532 80.7708 17.461C80.7708 14.6255 83.2713 12.6777 86.8146 12.6777C90.3179 12.6777 92.7247 14.6255 92.8049 17.461H90.2911C90.144 15.818 88.7668 14.8242 86.7745 14.8242C84.7822 14.8242 83.405 15.8312 83.405 17.2887C83.405 18.4547 84.2741 19.1305 86.4135 19.6605L88.2453 20.111C91.655 20.906 93.0723 22.2707 93.0723 24.669C93.0723 27.743 90.5987 29.6775 86.6675 29.6775C82.9905 29.6775 80.5034 27.796 80.343 24.8147H82.8835V24.828Z" fill="white"/>
<path d="M98.4493 14.5728V17.4083H100.749V19.356H98.4493V25.9678C98.4493 27.0013 98.9039 27.4783 99.9202 27.4783C100.174 27.4783 100.575 27.4385 100.736 27.4253V29.3598C100.455 29.426 99.9068 29.479 99.3586 29.479C96.9116 29.479 95.9489 28.5648 95.9489 26.246V19.3693H94.1839V17.4215H95.9489V14.5728H98.4493Z" fill="white"/>
<path d="M102.071 23.4102C102.071 19.634 104.318 17.2622 107.808 17.2622C111.324 17.2622 113.544 19.634 113.544 23.4102C113.544 27.1997 111.324 29.5582 107.808 29.5582C104.304 29.5582 102.071 27.1997 102.071 23.4102ZM111.03 23.4102C111.03 20.8265 109.827 19.2895 107.821 19.2895C105.815 19.2895 104.612 20.8265 104.612 23.4102C104.612 26.0072 105.802 27.531 107.821 27.531C109.84 27.531 111.03 26.0072 111.03 23.4102Z" fill="white"/>
<path d="M115.619 17.4084H117.986V19.4489H118.04C118.414 18.0974 119.524 17.2759 120.954 17.2759C121.316 17.2759 121.61 17.3289 121.81 17.3686V19.6741C121.61 19.5946 121.182 19.5284 120.7 19.5284C119.096 19.5284 118.106 20.6016 118.106 22.2844V29.3996H115.619V17.4084Z" fill="white"/>
<path d="M133.255 25.888C132.921 28.061 130.782 29.5582 128.041 29.5582C124.524 29.5582 122.331 27.2262 122.331 23.4632C122.331 19.7002 124.524 17.2622 127.934 17.2622C131.277 17.2622 133.389 19.5412 133.389 23.185V24.033H124.845V24.1787C124.845 26.2325 126.142 27.5707 128.108 27.5707C129.485 27.5707 130.568 26.9215 130.902 25.888H133.255ZM124.858 22.2972H130.915C130.862 20.4555 129.672 19.2497 127.947 19.2497C126.236 19.263 124.992 20.4952 124.858 22.2972Z" fill="white"/>
</svg>
