<svg width="143" height="34" viewBox="0 0 143 34" fill="none" xmlns="http://www.w3.org/2000/svg">
<path d="M72.0036 18.5572C69.1276 18.5572 66.778 20.6604 66.778 23.5509C66.778 26.4297 69.1276 28.5447 72.0036 28.5447C74.8795 28.5447 77.2292 26.4297 77.2292 23.5509C77.2292 20.6604 74.8795 18.5572 72.0036 18.5572ZM72.0036 26.5824C70.4249 26.5824 69.0665 25.3369 69.0665 23.5509C69.0665 21.7532 70.4249 20.5194 72.0036 20.5194C73.5823 20.5194 74.9407 21.7532 74.9407 23.5509C74.9407 25.3369 73.57 26.5824 72.0036 26.5824ZM60.5978 18.5572C57.7219 18.5572 55.3722 20.6604 55.3722 23.5509C55.3722 26.4297 57.7219 28.5447 60.5978 28.5447C63.4737 28.5447 65.8234 26.4297 65.8234 23.5509C65.8234 20.6604 63.4737 18.5572 60.5978 18.5572ZM60.5978 26.5824C59.0191 26.5824 57.6607 25.3369 57.6607 23.5509C57.6607 21.7532 59.0191 20.5194 60.5978 20.5194C62.1765 20.5194 63.5349 21.7532 63.5349 23.5509C63.5349 25.3369 62.1765 26.5824 60.5978 26.5824ZM47.0382 20.0964V22.2114H52.325C52.1659 23.3982 51.7498 24.2794 51.1257 24.8787C50.3547 25.6189 49.1554 26.4297 47.0504 26.4297C43.7952 26.4297 41.2497 23.9152 41.2497 20.7897C41.2497 17.6642 43.7952 15.1497 47.0504 15.1497C48.8005 15.1497 50.0855 15.8077 51.0278 16.6654L52.582 15.1732C51.2603 13.9629 49.5103 13.0347 47.0382 13.0347C42.5836 13.0347 38.8388 16.5127 38.8388 20.8014C38.8388 25.0784 42.5836 28.5682 47.0382 28.5682C49.4491 28.5682 51.2603 27.8162 52.6799 26.3944C54.1362 24.9962 54.589 23.0222 54.589 21.4359C54.589 20.9424 54.5523 20.4842 54.4666 20.1082H47.0382V20.0964ZM102.488 21.7414C102.06 20.6252 100.738 18.5572 98.0336 18.5572C95.3535 18.5572 93.1262 20.5782 93.1262 23.5509C93.1262 26.3474 95.329 28.5447 98.2906 28.5447C100.677 28.5447 102.06 27.1464 102.623 26.3357L100.848 25.1959C100.261 26.0302 99.4532 26.5824 98.2906 26.5824C97.128 26.5824 96.2958 26.0654 95.7696 25.0667L102.733 22.3054L102.488 21.7414ZM95.3902 23.4099C95.329 21.4829 96.9444 20.4959 98.107 20.4959C99.0126 20.4959 99.7836 20.9307 100.041 21.5534L95.3902 23.4099ZM89.7363 28.2509H92.0248V13.5634H89.7363V28.2509ZM85.9915 19.6734H85.9058C85.3918 19.0859 84.4128 18.5572 83.1645 18.5572C80.5579 18.5572 78.1715 20.7544 78.1715 23.5744C78.1715 26.3709 80.5579 28.5564 83.1645 28.5564C84.4006 28.5564 85.3918 28.0277 85.9058 27.4167H85.9793V28.1334C85.9793 30.0487 84.9146 31.0709 83.2013 31.0709C81.8061 31.0709 80.9372 30.1074 80.5823 29.2967L78.5876 30.0957C79.1627 31.4234 80.6802 33.0449 83.2013 33.0449C85.8814 33.0449 88.1454 31.5292 88.1454 27.8397V18.8627H85.9793V19.6734H85.9915ZM83.3603 26.5824C81.7817 26.5824 80.46 25.3134 80.46 23.5744C80.46 21.8119 81.7817 20.5312 83.3603 20.5312C84.9146 20.5312 86.1384 21.8237 86.1384 23.5744C86.1506 25.3134 84.9268 26.5824 83.3603 26.5824ZM113.209 13.5634H107.738V28.2509H110.027V22.6814H113.221C115.754 22.6814 118.238 20.9189 118.238 18.1224C118.238 15.3259 115.73 13.5634 113.209 13.5634ZM113.258 20.6369H110.015V15.5962H113.258C114.971 15.5962 115.938 16.9592 115.938 18.1107C115.938 19.2622 114.971 20.6369 113.258 20.6369ZM127.38 18.5337C125.728 18.5337 124.015 19.2387 123.305 20.7779L125.336 21.5887C125.765 20.7779 126.572 20.5077 127.417 20.5077C128.604 20.5077 129.803 21.1892 129.815 22.3994V22.5522C129.399 22.3289 128.518 21.9882 127.429 21.9882C125.239 21.9882 123.023 23.1397 123.023 25.2899C123.023 27.2522 124.81 28.5212 126.817 28.5212C128.347 28.5212 129.204 27.8632 129.73 27.0877H129.803V28.2274H132.006V22.5992C132.018 19.9907 129.987 18.5337 127.38 18.5337ZM127.099 26.5824C126.352 26.5824 125.312 26.2182 125.312 25.3369C125.312 24.2089 126.609 23.7742 127.735 23.7742C128.739 23.7742 129.216 23.9857 129.815 24.2677C129.644 25.6189 128.42 26.5824 127.099 26.5824ZM140.046 18.8509L137.427 25.2194H137.354L134.637 18.8509H132.177L136.253 27.7574L133.927 32.7042H136.314L142.592 18.8509H140.046ZM119.487 28.2509H121.775V13.5634H119.487V28.2509Z" fill="white"/>
<path d="M1.39205 1.85862C1.03715 2.22287 0.829102 2.78687 0.829102 3.50362V29.4946C0.829102 30.2231 1.03715 30.7871 1.39205 31.1396L1.47771 31.2219L16.6405 16.6754V16.4991V16.3229L1.47771 1.77637L1.39205 1.85862Z" fill="url(#paint0_linear)"/>
<path d="M21.6931 21.5287L16.6389 16.6759V16.4997V16.3234L21.6931 11.4707L21.8033 11.5295L27.7876 14.7959C29.5009 15.7242 29.5009 17.2517 27.7876 18.1917L21.8033 21.4582L21.6931 21.5287Z" fill="url(#paint1_linear)"/>
<path d="M21.8022 21.4673L16.6378 16.4971L1.38934 31.1376C1.95229 31.7133 2.88237 31.7838 3.93483 31.2081L21.8022 21.4673Z" fill="url(#paint2_linear)"/>
<path d="M21.8039 11.5403L3.92433 1.78783C2.87187 1.21208 1.94179 1.28258 1.37885 1.85833L16.6395 16.4988L21.8039 11.5403Z" fill="url(#paint3_linear)"/>
<path opacity="0.2" d="M21.6953 21.3521L3.92589 31.0458C2.93462 31.5863 2.04125 31.551 1.47831 31.0575L1.39264 31.1398L1.47831 31.222C2.05349 31.7155 2.93462 31.7508 3.92589 31.2103L21.8055 21.4578L21.6953 21.3521Z" fill="black"/>
<path opacity="0.12" d="M1.39204 30.9765C1.03715 30.6123 0.829102 30.0483 0.829102 29.3315V29.5078C0.829102 30.2363 1.03715 30.8003 1.39204 31.1528L1.47771 31.0705L1.39204 30.9765Z" fill="black"/>
<path opacity="0.12" d="M27.7884 18.0246L21.6817 21.3498L21.7918 21.4556L27.7762 18.1891C28.6328 17.7191 29.0612 17.1081 29.0612 16.4971C29 17.0493 28.5716 17.6016 27.7884 18.0246Z" fill="black"/>
<path opacity="0.25" d="M3.92368 1.95336L27.7876 14.9724C28.5586 15.3954 28.9992 15.9359 29.0726 16.4999C29.0726 15.8889 28.6443 15.2661 27.7876 14.8079L3.92368 1.78887C2.21037 0.860616 0.815247 1.63611 0.815247 3.51611V3.69236C0.815247 1.80062 2.22261 1.02512 3.92368 1.95336Z" fill="white"/>
<path d="M40.1501 9.76491H39.2444V7.40316H39.9665C40.6029 6.87441 40.9088 5.98141 40.8966 4.70066V1.22266H45.804V7.40316H46.6239V9.76491H45.7183V8.27266H40.1501V9.76491ZM41.8511 4.71241C41.8634 5.82866 41.6308 6.72166 41.1536 7.41491H44.8616V2.09216H41.8511V4.71241Z" fill="white" stroke="white" stroke-width="0.2" stroke-miterlimit="10"/>
<path d="M53.9804 7.35803C53.2583 8.07478 52.365 8.42728 51.288 8.42728C50.2111 8.42728 49.3177 8.07478 48.5957 7.35803C47.8736 6.64128 47.5187 5.77178 47.5187 4.74953C47.5187 3.72728 47.8736 2.84603 48.5957 2.14103C49.3177 1.42428 50.2111 1.07178 51.288 1.07178C52.3527 1.07178 53.2461 1.42428 53.9804 2.14103C54.7024 2.85778 55.0695 3.72728 55.0695 4.74953C55.0695 5.78353 54.7024 6.65303 53.9804 7.35803ZM49.2932 6.77053C49.8317 7.29928 50.5048 7.55778 51.288 7.55778C52.0712 7.55778 52.7443 7.29928 53.2828 6.77053C53.8213 6.24178 54.1027 5.57203 54.1027 4.74953C54.1027 3.92703 53.8335 3.25728 53.2828 2.72853C52.7443 2.19978 52.0835 1.92953 51.288 1.92953C50.5048 1.92953 49.8317 2.18803 49.2932 2.71678C48.7548 3.25728 48.4855 3.92703 48.4855 4.74953C48.4855 5.57203 48.7548 6.24178 49.2932 6.77053Z" fill="white" stroke="white" stroke-width="0.2" stroke-miterlimit="10"/>
<path d="M59.8178 8.42782C58.7409 8.42782 57.8353 8.07532 57.101 7.37032C56.3667 6.66532 55.9996 5.79582 55.9996 4.73832C55.9996 3.69257 56.3667 2.81133 57.101 2.10633C57.8353 1.40133 58.7409 1.04883 59.8178 1.04883C60.9192 1.04883 61.8248 1.43658 62.5101 2.20033L61.8493 2.81133C61.3475 2.21208 60.6744 1.91833 59.8056 1.91833C59.0101 1.91833 58.3248 2.17683 57.7741 2.69383C57.2234 3.21083 56.9541 3.89232 56.9541 4.72657C56.9541 5.56082 57.2234 6.24232 57.7741 6.75932C58.3248 7.27632 58.9979 7.53482 59.8056 7.53482C60.6867 7.53482 61.4332 7.19407 62.0573 6.51257L62.7182 7.14707C62.3878 7.53482 61.9594 7.84032 61.4577 8.06357C60.9559 8.32207 60.4052 8.42782 59.8178 8.42782Z" fill="white" stroke="white" stroke-width="0.2" stroke-miterlimit="10"/>
<path d="M66.5465 8.27266H65.6042V2.09216H63.5482V1.22266H68.5902V2.09216H66.5343V8.27266H66.5465Z" fill="white" stroke="white" stroke-width="0.2" stroke-miterlimit="10"/>
<path d="M75.077 1.22266L72.299 7.16816C71.9196 8.0024 71.3445 8.4254 70.5857 8.4254C70.3654 8.4254 70.1207 8.3784 69.8514 8.27265L70.0962 7.4384C70.2553 7.52065 70.4144 7.56765 70.5857 7.56765C70.806 7.56765 70.9773 7.5324 71.0997 7.45015C71.2221 7.3679 71.3322 7.21515 71.4301 7.00365L71.6993 6.43965L69.2273 1.22266H70.3409L72.1522 5.26465H72.1889L73.9634 1.22266H75.077Z" fill="white" stroke="white" stroke-width="0.2" stroke-miterlimit="10"/>
<path d="M76.1404 8.27266V1.22266H81.4516V8.27266H80.5093V2.09216H77.0827V8.27266H76.1404Z" fill="white" stroke="white" stroke-width="0.2" stroke-miterlimit="10"/>
<path d="M83.1289 8.27266V1.22266H84.0712V4.24241H87.7426V1.22266H88.6849V8.27266H87.7426V5.08841H84.0712V8.27266H83.1289Z" fill="white" stroke="white" stroke-width="0.2" stroke-miterlimit="10"/>
<path d="M96.3836 7.35803C95.6616 8.07478 94.7682 8.42728 93.6913 8.42728C92.6143 8.42728 91.721 8.07478 90.9989 7.35803C90.2769 6.64128 89.922 5.77178 89.922 4.74953C89.922 3.72728 90.2769 2.84603 90.9989 2.14103C91.721 1.42428 92.6143 1.07178 93.6913 1.07178C94.756 1.07178 95.6493 1.42428 96.3836 2.14103C97.1057 2.85778 97.4728 3.72728 97.4728 4.74953C97.4606 5.78353 97.1057 6.65303 96.3836 7.35803ZM91.6965 6.77053C92.235 7.29928 92.9081 7.55778 93.6913 7.55778C94.4745 7.55778 95.1476 7.29928 95.6861 6.77053C96.2245 6.24178 96.506 5.57203 96.506 4.74953C96.506 3.92703 96.2368 3.25728 95.6861 2.72853C95.1353 2.19978 94.4745 1.92953 93.6913 1.92953C92.9081 1.92953 92.235 2.18803 91.6965 2.71678C91.1458 3.25728 90.8766 3.92703 90.8766 4.74953C90.8766 5.57203 91.1458 6.24178 91.6965 6.77053Z" fill="white" stroke="white" stroke-width="0.2" stroke-miterlimit="10"/>
<path d="M101.314 8.27266V1.22266H103.97C104.545 1.22266 105.047 1.41066 105.463 1.76316C105.891 2.13916 106.099 2.59741 106.099 3.13791C106.099 3.47866 106.013 3.77241 105.83 4.01916C105.646 4.27766 105.414 4.46566 105.108 4.59491V4.63016C105.475 4.74766 105.769 4.94741 106.001 5.24116C106.234 5.53491 106.356 5.86391 106.356 6.23991C106.356 6.81566 106.136 7.29741 105.695 7.67341C105.242 8.08465 104.716 8.27266 104.117 8.27266H101.314ZM102.256 4.24241H103.97C104.325 4.24241 104.606 4.12491 104.826 3.90166C105.047 3.67841 105.145 3.43166 105.145 3.16141C105.145 2.89116 105.047 2.64441 104.826 2.42116C104.618 2.19791 104.349 2.08041 104.006 2.08041H102.256V4.24241ZM102.256 7.40316H104.153C104.52 7.40316 104.814 7.28566 105.034 7.03891C105.255 6.79216 105.377 6.53366 105.377 6.23991C105.377 5.94616 105.267 5.68766 105.022 5.45266C104.79 5.21766 104.484 5.08841 104.104 5.08841H102.244V7.40316H102.256Z" fill="white" stroke="white" stroke-width="0.2" stroke-miterlimit="10"/>
<defs>
<linearGradient id="paint0_linear" x1="15.2938" y1="3.23313" x2="-4.40918" y2="23.7543" gradientUnits="userSpaceOnUse">
<stop stop-color="#00A0FF"/>
<stop offset="0.00657445" stop-color="#00A1FF"/>
<stop offset="0.2601" stop-color="#00BEFF"/>
<stop offset="0.5122" stop-color="#00D2FF"/>
<stop offset="0.7604" stop-color="#00DFFF"/>
<stop offset="1" stop-color="#00E3FF"/>
</linearGradient>
<linearGradient id="paint1_linear" x1="30.0202" y1="16.5015" x2="0.408196" y2="16.5015" gradientUnits="userSpaceOnUse">
<stop stop-color="#FFE000"/>
<stop offset="0.4087" stop-color="#FFBD00"/>
<stop offset="0.7754" stop-color="#FFA500"/>
<stop offset="1" stop-color="#FF9C00"/>
</linearGradient>
<linearGradient id="paint2_linear" x1="18.9959" y1="19.1951" x2="-7.72296" y2="47.0235" gradientUnits="userSpaceOnUse">
<stop stop-color="#FF3A44"/>
<stop offset="1" stop-color="#C31162"/>
</linearGradient>
<linearGradient id="paint3_linear" x1="-2.45505" y1="-6.79402" x2="9.47613" y2="5.63248" gradientUnits="userSpaceOnUse">
<stop stop-color="#32A071"/>
<stop offset="0.0685" stop-color="#2DA771"/>
<stop offset="0.4762" stop-color="#15CF74"/>
<stop offset="0.8009" stop-color="#06E775"/>
<stop offset="1" stop-color="#00F076"/>
</linearGradient>
</defs>
</svg>
